<svg id="like" xmlns="http://www.w3.org/2000/svg" width="18.5" height="19" viewBox="0 0 18.5 19">
  <defs>
    <style>
      .cls-1 {
        fill: #787878;
        fill-rule: evenodd;
      }
    </style>
  </defs>
  <g id="그룹_1" data-name="그룹 1" transform="translate(0)">
    <path id="패스_1" data-name="패스 1" class="cls-1" d="M17.25,14.485h3a1,1,0,0,0,1-1v-10a1,1,0,0,0-1-1h-3a1,1,0,0,0-1,1v10a1,1,0,0,0,1,1M3.343,15.4a2.363,2.363,0,0,0,1.779.813H7.38l-.164.627a7.332,7.332,0,0,0-.2,1.863,2.613,2.613,0,0,0,2.738,2.778,1.226,1.226,0,0,0,.986-.376,1.171,1.171,0,0,0,.243-.935l-.03-1.23,2.9-2.94a2.682,2.682,0,0,0,.894-1.872V4.485a.5.5,0,0,0-.5-.5H6.562a2.388,2.388,0,0,0-2.348,2.07L2.769,13.507a2.44,2.44,0,0,0,.574,1.9" transform="translate(-2.75 -2.485)"/>
  </g>
</svg>
